<svg width="20" height="20" viewBox="0 0 20 20" fill="none" xmlns="http://www.w3.org/2000/svg">
<path d="M10.0006 12.3899L7.61011 9.9994L10.0006 7.60892L12.3911 9.9994L10.0006 12.3899ZM7.46071 5.78139L5.43836 3.76023L8.64161 0.556983C8.83524 0.363354 9.05038 0.221917 9.28704 0.132672C9.52529 0.0442238 9.76314 0 10.0006 0C10.2381 0 10.4755 0.0442238 10.713 0.132672C10.9504 0.221917 11.1656 0.362955 11.3584 0.555788L14.5628 3.75904L12.5405 5.78259L10.0006 3.2415L7.46071 5.78139ZM3.76023 14.5616L0.556983 11.3584C0.363354 11.1648 0.221917 10.9496 0.132672 10.713C0.0442241 10.4747 0 10.2369 0 9.9994C0 9.76195 0.0442241 9.52449 0.132672 9.28704C0.221917 9.04958 0.362956 8.83444 0.555788 8.64161L3.75904 5.43716L5.78259 7.45951L3.24269 9.9994L5.78259 12.5393L3.76023 14.5616ZM16.241 14.5616L14.2186 12.5393L16.7585 9.9994L14.2186 7.45951L16.241 5.43716L19.4442 8.64041C19.6378 8.83404 19.7793 9.04918 19.8685 9.28584C19.957 9.52409 20.0012 9.76195 20.0012 9.9994C20.0012 10.2369 19.957 10.4743 19.8685 10.7118C19.7793 10.9492 19.6382 11.1644 19.4454 11.3572L16.241 14.5616ZM8.64161 19.4442L5.43836 16.241L7.46071 14.2174L10.0006 16.7573L12.5405 14.2174L14.5628 16.2398L11.3596 19.443C11.166 19.6366 10.9508 19.7781 10.7142 19.8673C10.4759 19.9558 10.2381 20 10.0006 20C9.76314 20 9.52569 19.9558 9.28823 19.8673C9.05078 19.7781 8.83564 19.637 8.6428 19.4442" fill="#40C067"/>
</svg>
