<svg width="19" height="20" viewBox="0 0 19 20" fill="none" xmlns="http://www.w3.org/2000/svg">
<path d="M17.3769 0H2.44925C1.55286 0 0.826172 0.591087 0.826172 1.32022V18.6798C0.826172 19.4089 1.55286 20 2.44925 20H17.3769C18.2733 20 19 19.4089 19 18.6798V1.32022C19 0.591087 18.2733 0 17.3769 0ZM3.40279 14.9396V13.0615C3.40279 12.9114 3.5523 12.7898 3.73676 12.7898H6.0457C6.23016 12.7898 6.37967 12.9114 6.37967 13.0615V14.9396C6.37967 15.0896 6.23016 15.2112 6.0457 15.2112H3.73676C3.5523 15.2112 3.40279 15.0896 3.40279 14.9396ZM3.40279 11.157V9.27887C3.40279 9.12883 3.5523 9.00722 3.73676 9.00722H6.0457C6.23016 9.00722 6.37967 9.12883 6.37967 9.27887V11.157C6.37967 11.307 6.23016 11.4286 6.0457 11.4286H3.73676C3.5523 11.4286 3.40279 11.307 3.40279 11.157ZM14.13 18.3043H5.69617C5.10573 18.3043 4.62712 17.915 4.62712 17.4348C4.62712 16.9545 5.10573 16.5652 5.69617 16.5652H14.13C14.7204 16.5652 15.1991 16.9545 15.1991 17.4348C15.1991 17.915 14.7204 18.3043 14.13 18.3043ZM8.75862 12.7898H11.0676C11.252 12.7898 11.4015 12.9114 11.4015 13.0614V14.9395C11.4015 15.0896 11.252 15.2112 11.0676 15.2112H8.75862C8.57416 15.2112 8.42465 15.0896 8.42465 14.9395V13.0614C8.42465 12.9114 8.57416 12.7898 8.75862 12.7898ZM8.42465 11.157V9.27887C8.42465 9.12883 8.57416 9.00722 8.75862 9.00722H11.0676C11.252 9.00722 11.4015 9.12883 11.4015 9.27887V11.157C11.4015 11.307 11.252 11.4286 11.0676 11.4286H8.75862C8.57416 11.4286 8.42465 11.307 8.42465 11.157ZM16.0894 15.2112H13.7805C13.596 15.2112 13.4465 15.0896 13.4465 14.9396V13.0615C13.4465 12.9114 13.596 12.7898 13.7805 12.7898H16.0894C16.2739 12.7898 16.4234 12.9114 16.4234 13.0615V14.9396C16.4234 15.0896 16.2739 15.2112 16.0894 15.2112ZM16.0894 11.4286H13.7805C13.596 11.4286 13.4465 11.307 13.4465 11.157V9.27887C13.4465 9.12883 13.596 9.00722 13.7805 9.00722H16.0894C16.2739 9.00722 16.4234 9.12883 16.4234 9.27887V11.157C16.4234 11.307 16.2739 11.4286 16.0894 11.4286ZM16.5412 6.50596C16.5412 7.01896 16.0299 7.43478 15.3993 7.43478H4.42694C3.79626 7.43478 3.28498 7.01891 3.28498 6.50596V2.71143C3.28498 2.19848 3.79626 1.78261 4.42694 1.78261H15.3993C16.0299 1.78261 16.5412 2.19848 16.5412 2.71143V6.50596Z" fill="black"/>
</svg>
