<svg width="122" height="120" viewBox="0 0 122 120" fill="none" xmlns="http://www.w3.org/2000/svg">
    <path fill-rule="evenodd" clip-rule="evenodd" d="M113.26 25.3759C112.371 22.583 111.01 19.9634 109.236 17.6311L121.317 5.49632L115.821 0L103.686 12.0812C101.353 10.3044 98.734 8.94035 95.941 8.04818C89.7018 5.97477 82.9253 6.21227 76.8466 8.71738C73.5357 10.0868 70.5301 12.1007 68.0043 14.642L54.2189 28.4809L92.827 67.0979L106.675 53.3125C109.236 50.7517 111.208 47.7983 112.591 44.4613C115.095 38.3824 115.332 31.6062 113.26 25.3669V25.3759ZM105.328 41.4722C104.358 43.8272 102.93 45.9656 101.125 47.7627L92.827 56.0607L65.2562 28.4898L73.5542 20.1918C75.3478 18.3851 77.4832 16.9535 79.8357 15.9804C82.2197 14.9647 84.786 14.4464 87.3773 14.4572C89.9686 14.4679 92.5304 15.0075 94.906 16.0428C97.2615 17.06 99.3137 18.4609 101.063 20.2543C102.847 21.9942 104.257 24.0553 105.274 26.4109C106.308 28.7852 106.847 31.3454 106.858 33.9351C106.868 36.5248 106.351 39.0894 105.336 41.4722H105.328ZM62.285 86.0317L75.5261 72.2463L70.0298 66.6964L56.7351 80.5354L40.1391 63.9482L53.4427 50.1004L47.8928 44.613L34.6606 58.3984L29.1643 52.911L15.3253 66.6964C12.7747 69.2367 10.7627 72.2653 9.40965 75.6012C8.03126 78.9056 7.32454 82.4513 7.33068 86.0317C7.33068 88.994 7.77681 91.8849 8.66907 94.6866C9.60595 97.4526 10.9711 100.013 12.7645 102.378L0.68335 114.513L6.17075 120L18.3055 107.928C20.67 109.712 23.2307 111.077 25.9968 112.014C28.7984 112.907 31.6894 113.353 34.6517 113.353C38.2742 113.353 41.7541 112.666 45.0911 111.283C48.4639 109.9 51.4262 107.928 53.9959 105.367L67.7813 91.5191L62.285 86.0317ZM42.102 104.082C39.743 105.058 37.2135 105.555 34.6606 105.545C31.9749 105.545 29.432 105.037 27.0318 104.029C24.7194 103.039 22.6106 101.629 20.8127 99.8706C19.0574 98.0717 17.6507 95.9631 16.6637 93.6516C15.6477 91.2404 15.1317 88.6481 15.1469 86.0317C15.137 83.4684 15.6385 80.9289 16.6221 78.5618C17.6057 76.1947 19.0516 74.0477 20.8752 72.2463L29.1732 63.9482L56.744 91.5191L48.446 99.8171C46.6283 101.637 44.4736 103.086 42.102 104.082Z" fill="#40C067"/>
</svg>
