<svg width="20" height="21" viewBox="0 0 20 21" fill="none" xmlns="http://www.w3.org/2000/svg">
<path d="M6.36364 9.59091H2.72727C2.00396 9.59091 1.31026 9.30357 0.7988 8.79211C0.287337 8.28065 0 7.58695 0 6.86364V3.22727C0 2.50396 0.287337 1.81026 0.7988 1.2988C1.31026 0.787337 2.00396 0.5 2.72727 0.5H6.36364C7.08695 0.5 7.78065 0.787337 8.29211 1.2988C8.80357 1.81026 9.09091 2.50396 9.09091 3.22727V6.86364C9.09091 7.58695 8.80357 8.28065 8.29211 8.79211C7.78065 9.30357 7.08695 9.59091 6.36364 9.59091ZM2.72727 2.31818C2.48617 2.31818 2.25494 2.41396 2.08445 2.58445C1.91396 2.75494 1.81818 2.98617 1.81818 3.22727V6.86364C1.81818 7.10474 1.91396 7.33597 2.08445 7.50646C2.25494 7.67695 2.48617 7.77273 2.72727 7.77273H6.36364C6.60474 7.77273 6.83597 7.67695 7.00646 7.50646C7.17695 7.33597 7.27273 7.10474 7.27273 6.86364V3.22727C7.27273 2.98617 7.17695 2.75494 7.00646 2.58445C6.83597 2.41396 6.60474 2.31818 6.36364 2.31818H2.72727ZM17.2727 9.59091H13.6364C12.913 9.59091 12.2194 9.30357 11.7079 8.79211C11.1964 8.28065 10.9091 7.58695 10.9091 6.86364V3.22727C10.9091 2.50396 11.1964 1.81026 11.7079 1.2988C12.2194 0.787337 12.913 0.5 13.6364 0.5H17.2727C17.996 0.5 18.6897 0.787337 19.2012 1.2988C19.7127 1.81026 20 2.50396 20 3.22727V6.86364C20 7.58695 19.7127 8.28065 19.2012 8.79211C18.6897 9.30357 17.996 9.59091 17.2727 9.59091ZM13.6364 2.31818C13.3953 2.31818 13.164 2.41396 12.9935 2.58445C12.8231 2.75494 12.7273 2.98617 12.7273 3.22727V6.86364C12.7273 7.10474 12.8231 7.33597 12.9935 7.50646C13.164 7.67695 13.3953 7.77273 13.6364 7.77273H17.2727C17.5138 7.77273 17.7451 7.67695 17.9156 7.50646C18.086 7.33597 18.1818 7.10474 18.1818 6.86364V3.22727C18.1818 2.98617 18.086 2.75494 17.9156 2.58445C17.7451 2.41396 17.5138 2.31818 17.2727 2.31818H13.6364ZM6.36364 20.5H2.72727C2.00396 20.5 1.31026 20.2127 0.7988 19.7012C0.287337 19.1897 0 18.496 0 17.7727V14.1364C0 13.413 0.287337 12.7194 0.7988 12.2079C1.31026 11.6964 2.00396 11.4091 2.72727 11.4091H6.36364C7.08695 11.4091 7.78065 11.6964 8.29211 12.2079C8.80357 12.7194 9.09091 13.413 9.09091 14.1364V17.7727C9.09091 18.496 8.80357 19.1897 8.29211 19.7012C7.78065 20.2127 7.08695 20.5 6.36364 20.5ZM2.72727 13.2273C2.48617 13.2273 2.25494 13.3231 2.08445 13.4935C1.91396 13.664 1.81818 13.8953 1.81818 14.1364V17.7727C1.81818 18.0138 1.91396 18.2451 2.08445 18.4156C2.25494 18.586 2.48617 18.6818 2.72727 18.6818H6.36364C6.60474 18.6818 6.83597 18.586 7.00646 18.4156C7.17695 18.2451 7.27273 18.0138 7.27273 17.7727V14.1364C7.27273 13.8953 7.17695 13.664 7.00646 13.4935C6.83597 13.3231 6.60474 13.2273 6.36364 13.2273H2.72727ZM17.2727 20.5H13.6364C12.913 20.5 12.2194 20.2127 11.7079 19.7012C11.1964 19.1897 10.9091 18.496 10.9091 17.7727V14.1364C10.9091 13.413 11.1964 12.7194 11.7079 12.2079C12.2194 11.6964 12.913 11.4091 13.6364 11.4091H17.2727C17.996 11.4091 18.6897 11.6964 19.2012 12.2079C19.7127 12.7194 20 13.413 20 14.1364V17.7727C20 18.496 19.7127 19.1897 19.2012 19.7012C18.6897 20.2127 17.996 20.5 17.2727 20.5ZM13.6364 13.2273C13.3953 13.2273 13.164 13.3231 12.9935 13.4935C12.8231 13.664 12.7273 13.8953 12.7273 14.1364V17.7727C12.7273 18.0138 12.8231 18.2451 12.9935 18.4156C13.164 18.586 13.3953 18.6818 13.6364 18.6818H17.2727C17.5138 18.6818 17.7451 18.586 17.9156 18.4156C18.086 18.2451 18.1818 18.0138 18.1818 17.7727V14.1364C18.1818 13.8953 18.086 13.664 17.9156 13.4935C17.7451 13.3231 17.5138 13.2273 17.2727 13.2273H13.6364Z" fill="#7E8486"/>
</svg>
