<svg width="14" height="16" viewBox="0 0 14 16" fill="none" xmlns="http://www.w3.org/2000/svg">
<path d="M11.8889 3.33333L11.266 12.6767C11.2114 13.495 11.1841 13.9042 11.0074 14.2144C10.8518 14.4876 10.6171 14.7072 10.3342 14.8443C10.0129 15 9.60277 15 8.7826 15H5.66182C4.84165 15 4.43157 15 4.11025 14.8443C3.82735 14.7072 3.59264 14.4876 3.43703 14.2144C3.26028 13.9042 3.233 13.495 3.17845 12.6767L2.55556 3.33333M1 3.33333H13.4444M10.3333 3.33333L10.1229 2.70183C9.91885 2.08986 9.81681 1.78388 9.62766 1.55765C9.46059 1.35788 9.24608 1.20325 9.00372 1.10794C8.72924 1 8.40678 1 7.76169 1H6.68276C6.03767 1 5.7152 1 5.44073 1.10794C5.19838 1.20325 4.98384 1.35788 4.81678 1.55765C4.62759 1.78388 4.5256 2.08986 4.32161 2.70183L4.11111 3.33333M8.77778 6.44444V11.8889M5.66667 6.44444V11.8889" stroke="#F63131" stroke-linecap="round" stroke-linejoin="round"/>
</svg>
