<svg width="17" height="18" viewBox="0 0 17 18" fill="none" xmlns="http://www.w3.org/2000/svg">
<path d="M8.89258 1.59999C8.89258 1.80808 8.80991 2.00765 8.66277 2.1548C8.51562 2.30194 8.31605 2.38461 8.10796 2.38461L1.83104 2.38461C1.76167 2.38461 1.69515 2.41216 1.6461 2.46121C1.59705 2.51026 1.5695 2.57678 1.5695 2.64614L1.5695 15.2C1.5695 15.2694 1.59705 15.3359 1.6461 15.3849C1.69515 15.434 1.76167 15.4615 1.83104 15.4615L8.10796 15.4615C8.31606 15.4615 8.51563 15.5442 8.66277 15.6913C8.80991 15.8385 8.89258 16.0381 8.89258 16.2461C8.89258 16.4542 8.80991 16.6538 8.66277 16.801C8.51563 16.9481 8.31606 17.0308 8.10796 17.0308L1.83104 17.0308C0.820454 17.0308 0.000268864 16.2106 0.000268776 15.2L0.000267679 2.64614C0.000267636 2.16059 0.193152 1.69493 0.536488 1.3516C0.879824 1.00826 1.34549 0.815375 1.83104 0.815375L8.10796 0.815374C8.31605 0.815374 8.51562 0.898039 8.66277 1.04518C8.80991 1.19233 8.89258 1.3919 8.89258 1.59999Z" fill="#A0AEB9"/>
<path d="M4.32838 7.75662C4.32838 7.47916 4.4386 7.21307 4.63479 7.01687C4.83098 6.82068 5.09707 6.71046 5.37453 6.71046L10.4547 6.71046C10.4787 6.33803 10.5091 5.96769 10.5446 5.59526L10.576 5.27618C10.5877 5.15593 10.6282 5.04027 10.6941 4.93902C10.7601 4.83776 10.8494 4.75391 10.9547 4.69456C11.0599 4.63522 11.1779 4.60213 11.2987 4.59812C11.4194 4.59411 11.5394 4.61928 11.6483 4.67151C13.5607 5.58805 15.292 6.84227 16.7588 8.37385L16.7902 8.40628C16.9248 8.54671 17 8.73375 17 8.92831C17 9.12287 16.9248 9.3099 16.7902 9.45034L16.7588 9.48277C15.292 11.0144 13.5607 12.2686 11.6483 13.1851C11.5394 13.2373 11.4194 13.2625 11.2987 13.2585C11.1779 13.2545 11.0599 13.2214 10.9547 13.1621C10.8494 13.1027 10.7601 13.0189 10.6941 12.9176C10.6282 12.8163 10.5877 12.7007 10.576 12.5804L10.5446 12.2614C10.5091 11.89 10.4787 11.5186 10.4547 11.1462L5.37453 11.1462C5.09708 11.1462 4.83098 11.0359 4.63479 10.8397C4.4386 10.6436 4.32838 10.3775 4.32838 10.1L4.32838 7.75662Z" fill="#A0AEB9"/>
</svg>
