<svg width="19" height="21" viewBox="0 0 19 21" fill="none" xmlns="http://www.w3.org/2000/svg">
<path fill-rule="evenodd" clip-rule="evenodd" d="M9.97232 0.0664663C9.66659 -0.022113 9.3417 -0.0221562 9.03595 0.0663414L1.20236 2.33372C0.489825 2.53996 0 3.18778 0 3.92391V8.57129C3.99233e-05 11.3025 0.86675 13.9645 2.47732 16.1799C4.08788 18.3954 6.36063 20.0521 8.97349 20.9151C9.31618 21.0283 9.68665 21.0283 10.0293 20.9151C12.6414 20.0519 14.9135 18.3954 16.5235 16.1804C18.1335 13.9653 18.9999 11.304 19 8.57342V3.92391C19 3.18795 18.5104 2.54023 17.7981 2.33384L9.97232 0.0664663ZM3.34066 8.57124V5.16609L9.50368 3.38224L15.6593 5.16574V8.57342C15.6593 10.6086 15.0135 12.5921 13.8135 14.243C12.7234 15.7429 11.2259 16.8991 9.50118 17.5806C7.77579 16.8991 6.27778 15.7427 5.18715 14.2424C3.9867 12.5911 3.34069 10.607 3.34066 8.57124ZM9.50391 1.65653L1.67033 3.92391V8.57126C1.67036 10.9547 2.42672 13.2778 3.83223 15.2112C5.23774 17.1446 7.22111 18.5903 9.5013 19.3435C11.7808 18.5902 13.7635 17.1447 15.1685 15.2117C16.5735 13.2787 17.3296 10.9563 17.3297 8.57342V3.92391L9.50391 1.65653Z" fill="url(#paint0_linear_531_1771)"/>
<defs>
<linearGradient id="paint0_linear_531_1771" x1="2.08605" y1="21" x2="16.7643" y2="20.5017" gradientUnits="userSpaceOnUse">
<stop stop-color="#1FB3FC"/>
<stop offset="1" stop-color="#2AD35E"/>
</linearGradient>
</defs>
</svg>
