<svg width="21" height="21" viewBox="0 0 21 21" fill="none" xmlns="http://www.w3.org/2000/svg">
<g clip-path="url(#clip0_531_1268)">
<path d="M20.4328 9.13399C20.4324 9.13351 20.4319 9.13303 20.4314 9.13255L11.8651 0.566528C11.4999 0.201233 11.0145 0 10.4981 0C9.9817 0 9.49624 0.201073 9.13095 0.566368L0.569098 9.12806C0.566214 9.13094 0.56333 9.13399 0.560446 9.13687C-0.189371 9.89101 -0.188089 11.1146 0.564131 11.8668C0.907797 12.2106 1.36169 12.4098 1.84699 12.4306C1.8667 12.4325 1.88656 12.4335 1.90659 12.4335H2.24801V18.7376C2.24801 19.985 3.26299 21 4.51076 21H7.86219C8.20185 21 8.47742 20.7246 8.47742 20.3848V15.4424C8.47742 14.8731 8.94045 14.4101 9.5097 14.4101H11.4865C12.0557 14.4101 12.5187 14.8731 12.5187 15.4424V20.3848C12.5187 20.7246 12.7942 21 13.134 21H16.4854C17.7332 21 18.7481 19.985 18.7481 18.7376V12.4335H19.0647C19.581 12.4335 20.0664 12.2324 20.4319 11.8671C21.1849 11.1136 21.1852 9.88797 20.4328 9.13399Z" fill="#A0AEB9"/>
</g>
<defs>
<clipPath id="clip0_531_1268">
<rect width="21" height="21" fill="white"/>
</clipPath>
</defs>
</svg>
