<svg width="21" height="21" viewBox="0 0 21 21" fill="none" xmlns="http://www.w3.org/2000/svg">
<g clip-path="url(#clip0_531_1238)">
<g clip-path="url(#clip1_531_1238)">
<path d="M3.29343 8.59082H0.95483C0.427596 8.59082 0 9.01842 0 9.54565V20.0456C0 20.5724 0.427596 21 0.95483 21H3.29343C3.82066 21 4.24781 20.5724 4.24781 20.0456V9.54565C4.24781 9.01842 3.82066 8.59082 3.29343 8.59082Z" fill="#A0AEB9"/>
<path d="M8.87741 11.4539H6.53881C6.01113 11.4539 5.58398 11.8815 5.58398 12.4087V20.0446C5.58398 20.5723 6.01113 20.9995 6.53881 20.9995H8.87741C9.40464 20.9995 9.83179 20.5719 9.83179 20.0446V12.4087C9.83179 11.8815 9.40464 11.4539 8.87741 11.4539Z" fill="#A0AEB9"/>
<path d="M14.4609 11.4539H12.1224C11.5951 11.4539 11.168 11.8815 11.168 12.4087V20.0446C11.168 20.5723 11.5951 20.9995 12.1224 20.9995H14.4609C14.9886 20.9995 15.4158 20.5719 15.4158 20.0446V12.4087C15.4158 11.8815 14.9886 11.4539 14.4609 11.4539Z" fill="#A0AEB9"/>
<path d="M20.0449 8.59082H17.7063C17.1791 8.59082 16.752 9.01842 16.752 9.54565V20.0456C16.752 20.5729 17.1791 21 17.7063 21H20.0449C20.5722 21 20.9998 20.572 20.9998 20.0456V9.54565C20.9998 9.01842 20.5722 8.59082 20.0449 8.59082Z" fill="#A0AEB9"/>
<path d="M10.7783 5.75049V7.46891C11.2984 7.43451 11.8466 7.19055 11.8466 6.61819C11.8466 6.02751 11.2457 5.85459 10.7783 5.75049Z" fill="#A0AEB9"/>
<path d="M9.28418 3.69365C9.28418 4.12795 9.60722 4.37906 10.2582 4.50953V2.95508C9.66665 2.9725 9.28418 3.32012 9.28418 3.69365Z" fill="#A0AEB9"/>
<path d="M10.5 0C7.60513 0 5.25 2.35557 5.25 5.25C5.25 8.14353 7.60513 10.4991 10.5 10.4991C13.3949 10.4991 15.75 8.14353 15.75 5.25C15.75 2.35557 13.3949 0 10.5 0ZM10.7784 8.35487V8.89238C10.7784 9.04028 10.6649 9.18772 10.5165 9.18772C10.37 9.18772 10.2578 9.04028 10.2578 8.89238V8.35487C8.79096 8.31913 8.06132 7.44249 8.06132 6.75664C8.06132 6.41036 8.27087 6.21019 8.59883 6.21019C9.57109 6.21019 8.81509 7.40809 10.2578 7.4684V5.65436C8.97102 5.42068 8.19179 4.85636 8.19179 3.89304C8.19179 2.71302 9.17298 2.10447 10.2578 2.07051V1.60762C10.2578 1.45972 10.37 1.31228 10.5165 1.31228C10.6649 1.31228 10.7784 1.45972 10.7784 1.60762V2.07051C11.4548 2.08838 12.844 2.51285 12.844 3.36402C12.844 3.70226 12.5911 3.90153 12.2957 3.90153C11.731 3.90153 11.739 2.97351 10.7784 2.95564V4.60481C11.924 4.84832 12.9387 5.18655 12.9387 6.5234C12.9387 7.686 12.071 8.27579 10.7784 8.35487Z" fill="#A0AEB9"/>
</g>
</g>
<defs>
<clipPath id="clip0_531_1238">
<rect width="21" height="21" fill="white"/>
</clipPath>
<clipPath id="clip1_531_1238">
<rect width="21" height="21" fill="white"/>
</clipPath>
</defs>
</svg>
