<svg width="20" height="20" viewBox="0 0 20 20" fill="none" xmlns="http://www.w3.org/2000/svg">
<path fill-rule="evenodd" clip-rule="evenodd" d="M13.4241 3.81226C11.9089 3.81226 10.6758 5.03627 10.6758 6.55217C10.6758 8.06807 11.9089 9.29207 13.4241 9.29207C14.9393 9.29207 16.1724 8.06807 16.1724 6.55217C16.1724 5.03627 14.9393 3.81226 13.4241 3.81226ZM12.0711 6.55217C12.0711 5.81229 12.6742 5.20761 13.4241 5.20761C14.1739 5.20761 14.777 5.81229 14.777 6.55217C14.777 7.29206 14.1739 7.89672 13.4241 7.89672C12.6742 7.89672 12.0711 7.29206 12.0711 6.55217Z" fill="#40C067"/>
<path fill-rule="evenodd" clip-rule="evenodd" d="M7.70236 18.259C8.01213 17.8271 8.11184 17.3889 8.10445 16.9985C8.46927 17.1059 8.8302 17.1195 9.17597 17.0539C9.89077 16.9182 10.4197 16.4663 10.7003 16.0938L10.7052 16.0873L10.7099 16.0807C11.1985 15.3994 11.1975 14.7018 11.0778 14.2014C11.0192 13.9562 10.9323 13.7546 10.8601 13.6137C10.8236 13.5425 10.7898 13.4847 10.7635 13.4424C10.7565 13.4312 10.7501 13.421 10.7442 13.4119C10.6617 13.2579 10.5685 13.1367 10.4902 13.0454L10.4986 13.037L10.9304 12.607C11.2854 12.7767 11.6705 12.8837 12.0078 12.9535C12.5526 13.0663 13.0858 13.1042 13.424 13.1042C17.0531 13.1042 20.0001 10.1734 20.0001 6.55208C20.0001 2.93077 17.0531 0 13.424 0C9.79486 0 6.8479 2.93077 6.8479 6.55208C6.8479 7.40516 7.04208 8.13575 7.23343 8.65029C7.28214 8.78127 7.33104 8.89922 7.37712 9.00276L0.628017 15.7243C0.389485 15.9619 0.109669 16.375 0.0250917 16.8924C-0.0666298 17.4535 0.084013 18.0772 0.628017 18.6191L1.44826 19.4359C1.46091 19.4486 1.47403 19.4607 1.4876 19.4722C1.72453 19.6745 2.12247 19.9083 2.60069 19.979C3.11362 20.0548 3.70726 19.9367 4.21007 19.4359L4.73708 18.9111C5.23281 19.1954 5.75681 19.2601 6.24136 19.1674C6.86979 19.047 7.39248 18.6708 7.69274 18.2721L7.69764 18.2656L7.70236 18.259ZM8.24322 6.55208C8.24322 3.70679 10.5601 1.39536 13.424 1.39536C16.2879 1.39536 18.6048 3.70679 18.6048 6.55208C18.6048 9.39736 16.2879 11.7088 13.424 11.7088C13.1699 11.7088 12.7324 11.6786 12.2906 11.5871C11.8284 11.4914 11.4654 11.3493 11.2721 11.1888C10.9953 10.9591 10.5891 10.9776 10.3342 11.2314L9.51393 12.0484C9.3263 12.2352 9.14592 12.4471 9.05067 12.6915C8.9302 13.0011 8.96862 13.299 9.10648 13.5462C9.18825 13.6928 9.31997 13.8328 9.37476 13.8913L9.39318 13.911C9.45802 13.9825 9.49355 14.0293 9.51951 14.081L9.54407 14.13L9.57216 14.1691L9.57848 14.1791C9.58686 14.1926 9.60118 14.2168 9.61821 14.2499C9.65281 14.3175 9.69393 14.4136 9.72072 14.5259C9.7716 14.7384 9.77104 14.9914 9.5809 15.2607C9.45002 15.4312 9.2023 15.6286 8.91588 15.683C8.67625 15.7284 8.28573 15.6988 7.76445 15.1797C7.49223 14.9086 7.05204 14.9086 6.77981 15.1797L6.5064 15.452C6.24886 15.7085 6.23159 16.1194 6.46566 16.3965C6.46697 16.3981 6.47056 16.4025 6.47595 16.4097C6.48714 16.4245 6.50552 16.45 6.5273 16.4842C6.57198 16.5546 6.62449 16.652 6.6618 16.7635C6.73208 16.9734 6.74314 17.1977 6.57343 17.4388C6.46184 17.5833 6.23542 17.7477 5.97889 17.7969C5.76088 17.8386 5.48175 17.8077 5.16701 17.4943C4.89479 17.2231 4.4546 17.2231 4.18237 17.4943L3.22542 18.4473C3.07203 18.6 2.93658 18.6181 2.80472 18.5986C2.64866 18.5756 2.49614 18.4925 2.41004 18.4245L1.61266 17.6303C1.39111 17.4097 1.38225 17.2393 1.40218 17.1174C1.42925 16.9518 1.53221 16.7931 1.61266 16.7129L8.72369 9.63104C8.95327 9.40239 8.99402 9.04518 8.82174 8.77066L8.81969 8.76731C8.81718 8.76313 8.81234 8.75494 8.80546 8.74303C8.79187 8.71922 8.77039 8.68043 8.74369 8.62806C8.69011 8.52312 8.61606 8.36498 8.54127 8.16396C8.39085 7.75945 8.24322 7.19662 8.24322 6.55208ZM6.46566 16.3965C6.46695 16.398 6.46823 16.3995 6.46952 16.401L6.46845 16.3997L6.46566 16.3965Z" fill="#40C067"/>
</svg>
