<svg width="20" height="20" viewBox="0 0 20 20" fill="none" xmlns="http://www.w3.org/2000/svg">
<g clip-path="url(#clip0_833_5809)">
<path d="M12.0193 13.573C11.7707 13.573 11.5322 13.6718 11.3564 13.8476C11.1806 14.0234 11.0818 14.2619 11.0818 14.5105V16.7945C11.0815 17.1455 10.942 17.4821 10.6938 17.7304C10.4456 17.9787 10.109 18.1183 9.75801 18.1187H3.20566C2.85462 18.1183 2.51808 17.9787 2.2699 17.7304C2.02171 17.4821 1.88215 17.1455 1.88184 16.7945V3.20544C1.88215 2.8544 2.02171 2.51782 2.2699 2.26956C2.51808 2.0213 2.85462 1.88164 3.20566 1.88123H9.75801C10.109 1.88164 10.4456 2.0213 10.6938 2.26956C10.942 2.51782 11.0815 2.8544 11.0818 3.20544V5.17966C11.0818 5.4283 11.1806 5.66676 11.3564 5.84258C11.5322 6.01839 11.7707 6.11716 12.0193 6.11716C12.268 6.11716 12.5064 6.01839 12.6822 5.84258C12.8581 5.66676 12.9568 5.4283 12.9568 5.17966V3.20544C12.9558 2.35734 12.6185 1.54427 12.0188 0.944535C11.4191 0.3448 10.6061 0.00736265 9.75801 0.00622559H3.20566C2.35756 0.00736265 1.54453 0.3448 0.944869 0.944535C0.345207 1.54427 0.00786945 2.35734 0.00683594 3.20544V16.7945C0.00786945 17.6426 0.345207 18.4557 0.944869 19.0554C1.54453 19.6552 2.35756 19.9926 3.20566 19.9937H9.75801C10.6061 19.9926 11.4191 19.6552 12.0188 19.0554C12.6185 18.4557 12.9558 17.6426 12.9568 16.7945V14.5105C12.9568 14.2619 12.8581 14.0234 12.6822 13.8476C12.5064 13.6718 12.268 13.573 12.0193 13.573Z" fill="#C7C9C8"/>
<path d="M19.7179 9.31759L16.3815 5.98361C16.208 5.8101 15.9733 5.71156 15.7279 5.70915C15.4825 5.70674 15.246 5.80065 15.069 5.97072C14.6901 6.33517 14.6991 6.95236 15.071 7.32423L16.8081 9.06251H8.68311C8.43447 9.06251 8.19601 9.16128 8.02019 9.3371C7.84438 9.51291 7.74561 9.75137 7.74561 10C7.74561 10.2487 7.84438 10.4871 8.02019 10.6629C8.19601 10.8387 8.43447 10.9375 8.68311 10.9375H16.8081L15.0542 12.6914C14.8783 12.8672 14.7795 13.1057 14.7795 13.3544C14.7794 13.603 14.8782 13.8415 15.054 14.0174C15.2298 14.1933 15.4683 14.2921 15.717 14.2921C15.9656 14.2921 16.2041 14.1934 16.38 14.0176L19.7179 10.6813C19.8075 10.5918 19.8787 10.4855 19.9272 10.3685C19.9757 10.2515 20.0007 10.1261 20.0007 9.99943C20.0007 9.87276 19.9757 9.74734 19.9272 9.63034C19.8787 9.51334 19.8075 9.40706 19.7179 9.31759Z" fill="#C7C9C8"/>
</g>
<defs>
<clipPath id="clip0_833_5809">
<rect width="20" height="20" fill="white"/>
</clipPath>
</defs>
</svg>
