<svg width="21" height="21" viewBox="0 0 21 21" fill="none" xmlns="http://www.w3.org/2000/svg">
<g clip-path="url(#clip0_531_1272)">
<g clip-path="url(#clip1_531_1272)">
<path d="M4.04156 14.001C4.25273 14.1266 4.43405 14.2902 4.57874 14.4791H7.31307V11.8277L6.01653 11.0238C5.72776 10.8448 5.63881 10.4656 5.81782 10.1768C5.99688 9.88814 6.37595 9.79919 6.66484 9.97812L7.92825 10.7614L9.0295 10.0787C6.83299 7.06678 7.33743 2.79905 10.2612 0.390267C5.44511 -1.22314 0.392992 2.36334 0.37019 7.5143C0.358296 10.246 1.81261 12.6741 4.04156 14.001Z" fill="#A0AEB9"/>
<path d="M4.96387 15.7095H10.7875V17.1039H4.96387V15.7095Z" fill="#A0AEB9"/>
<path d="M8.54297 11.8278V14.4792H11.1632C11.3023 14.2956 11.4759 14.1383 11.6779 14.0194C12.237 13.6903 12.7503 13.2888 13.2053 12.8294C11.9202 12.54 10.7661 11.901 9.84837 11.0178C9.81339 11.0405 9.56121 11.1965 8.54297 11.8278Z" fill="#A0AEB9"/>
<path d="M14.7651 0.00195312C11.5393 0.00195312 8.90039 2.66759 8.90039 5.90765C8.90039 8.95531 11.2399 11.479 14.2397 11.7483C17.7112 12.0585 20.6298 9.30658 20.6298 5.90765C20.6298 2.67387 17.9989 0.00195312 14.7651 0.00195312ZM15.3811 8.57407V8.70264C15.3811 9.04238 15.1056 9.31781 14.7659 9.31781C14.4262 9.31781 14.1507 9.04238 14.1507 8.70264V8.64362C13.8673 8.59392 13.6083 8.48786 13.2812 8.27382C12.9969 8.08783 12.9172 7.70659 13.1032 7.42225C13.2891 7.13788 13.6704 7.05823 13.9547 7.24418C14.2546 7.44038 14.3518 7.45568 14.7617 7.45285C15.1575 7.45022 15.3152 7.13956 15.346 6.95644C15.3736 6.79202 15.3426 6.57343 15.0377 6.46569C14.5269 6.28512 14.0032 6.07793 13.6321 5.78691C12.7872 5.12424 13.0423 3.6107 14.1508 3.20792V3.11885C14.1508 2.77911 14.4262 2.50367 14.7659 2.50367C15.1057 2.50367 15.3811 2.77911 15.3811 3.11885V3.15297C15.6842 3.23852 15.9283 3.39326 16.096 3.56378C16.3343 3.806 16.331 4.19549 16.0888 4.43372C15.8466 4.67184 15.4574 4.66868 15.2192 4.42688C15.1849 4.39337 14.9954 4.23535 14.5851 4.35892C14.4213 4.40826 14.3773 4.57813 14.3677 4.62902C14.3477 4.73524 14.3762 4.80685 14.3915 4.81883C14.6235 5.00084 15.0556 5.16706 15.4478 5.30568C17.0691 5.87877 16.8716 8.03521 15.3811 8.57407Z" fill="#A0AEB9"/>
<path d="M5.94727 19.0724C5.94727 20.1353 6.81196 21 7.87482 21C8.93768 21 9.80237 20.1353 9.80237 19.0724V18.3342H5.94727V19.0724Z" fill="#A0AEB9"/>
</g>
</g>
<defs>
<clipPath id="clip0_531_1272">
<rect width="21" height="21" fill="white"/>
</clipPath>
<clipPath id="clip1_531_1272">
<rect width="21" height="21" fill="white"/>
</clipPath>
</defs>
</svg>
