<svg width="21" height="20" viewBox="0 0 21 20" fill="none" xmlns="http://www.w3.org/2000/svg">
<path d="M20.393 16.3482C18.0216 15.3884 17.9314 11.2685 17.9297 11.1645V8.4005C17.9297 5.74029 16.116 3.45279 13.5387 2.4788C13.5332 1.11112 12.2903 0 10.7633 0C9.23614 0 7.99335 1.11118 7.98777 2.47874C5.4106 3.45273 3.59689 5.74022 3.59689 8.40043V11.1644C3.59521 11.2684 3.50494 15.3883 1.13352 16.3482C0.863372 16.4576 0.7149 16.7211 0.777359 16.9809C0.839744 17.2406 1.09603 17.4262 1.3925 17.4262H7.40428C7.52752 18.0338 7.84809 18.5991 8.33839 19.057C8.98959 19.6651 9.85077 20 10.7631 20C11.6756 20 12.5368 19.6651 13.1879 19.057C13.6783 18.5991 13.9989 18.0337 14.122 17.4262H20.1338C20.4303 17.4262 20.6865 17.2407 20.749 16.9809C20.8115 16.7211 20.6631 16.4576 20.393 16.3482ZM17.2692 14.3745C17.5185 15.0519 17.8715 15.7322 18.372 16.2983H3.15443C3.6549 15.7323 4.00789 15.052 4.25717 14.3745H17.2692ZM10.7633 1.12795C11.454 1.12795 12.0381 1.54396 12.2208 2.11102C11.75 2.02351 11.2625 1.97736 10.7633 1.97736C10.264 1.97736 9.7765 2.02347 9.30571 2.11102C9.48849 1.54399 10.0725 1.12795 10.7633 1.12795ZM4.85536 11.1679V8.4004C4.85536 5.48068 7.5056 3.10531 10.7633 3.10531C14.0209 3.10531 16.6712 5.48068 16.6712 8.4004V11.1725C16.672 11.2573 16.6867 12.1489 16.9374 13.2465H4.58894C4.83979 12.1479 4.8546 11.2547 4.85536 11.1679ZM10.7633 18.8721C9.80283 18.8721 8.96461 18.2515 8.69556 17.4262H12.8309C12.5618 18.2515 11.7238 18.8721 10.7633 18.8721Z" fill="black"/>
<path d="M10.7633 3.89661C8.05605 3.89661 5.85352 5.87064 5.85352 8.29709C5.85352 8.60856 6.13525 8.86108 6.48277 8.86108C6.83028 8.86108 7.11202 8.60856 7.11202 8.29709C7.11202 6.4926 8.74998 5.02455 10.7634 5.02455C11.1109 5.02455 11.3926 4.77204 11.3926 4.46056C11.3926 4.14906 11.1108 3.89661 10.7633 3.89661Z" fill="black"/>
</svg>
