<svg width="20" height="20" viewBox="0 0 20 20" fill="none" xmlns="http://www.w3.org/2000/svg">
<g clip-path="url(#clip0_2413_3287)">
<path d="M8.10015 18.9999C4.67461 18.9999 2.96185 18.9999 1.89767 17.9357C0.833496 16.8716 0.833496 16.0671 0.833496 12.6416" stroke="#40C067" stroke-width="2" stroke-linecap="round"/>
<path d="M19.0001 12.6416C19.0001 16.0671 19 16.8716 17.9358 17.9357C16.8717 18.9999 15.1589 18.9999 11.7334 18.9999" stroke="#40C067" stroke-width="2" stroke-linecap="round"/>
<path d="M11.7334 0.833374C15.1589 0.833374 16.8717 0.833374 17.9358 1.89755C19 2.96173 19.0001 3.76616 19.0001 7.19169" stroke="#40C067" stroke-width="2" stroke-linecap="round"/>
<path d="M8.10015 0.833374C4.67461 0.833374 2.96185 0.833374 1.89767 1.89755C0.833496 2.96173 0.833496 3.76616 0.833496 7.19169" stroke="#40C067" stroke-width="2" stroke-linecap="round"/>
<path d="M4.36922 11.7876C3.8288 11.1608 3.55859 10.8473 3.55859 9.91666C3.55859 8.98598 3.82879 8.67252 4.36921 8.04569C5.44826 6.79401 7.25794 5.375 9.91691 5.375C12.5759 5.375 14.3855 6.79401 15.4646 8.04569C16.005 8.67252 16.2752 8.98598 16.2752 9.91666C16.2752 10.8473 16.005 11.1608 15.4646 11.7876C14.3855 13.0393 12.5759 14.4583 9.91691 14.4583C7.25794 14.4583 5.44827 13.0393 4.36922 11.7876Z" stroke="#40C067" stroke-width="2"/>
<path d="M9.91676 11.7333C10.9201 11.7333 11.7334 10.92 11.7334 9.91664C11.7334 8.91332 10.9201 8.09998 9.91676 8.09998C8.91345 8.09998 8.1001 8.91332 8.1001 9.91664C8.1001 10.92 8.91345 11.7333 9.91676 11.7333Z" stroke="#40C067" stroke-width="2"/>
</g>
<defs>
<clipPath id="clip0_2413_3287">
<rect width="20" height="20" fill="white"/>
</clipPath>
</defs>
</svg>
