<svg width="19" height="19" viewBox="0 0 19 19" fill="none" xmlns="http://www.w3.org/2000/svg">
<g clip-path="url(#clip0_531_1768)">
<path d="M13.9328 13.9333H12.6661V12.6666H13.9328V13.9333ZM10.1328 13.9333H11.3995V12.6666H10.1328V13.9333ZM16.4661 13.9333H15.1995V12.6666H16.4661V13.9333Z" fill="url(#paint0_linear_531_1768)"/>
<path fill-rule="evenodd" clip-rule="evenodd" d="M3.8 7.6V4.43333C3.8 3.85114 3.91467 3.27465 4.13747 2.73677C4.36026 2.19889 4.68682 1.71017 5.09849 1.29849C5.51017 0.88682 5.99889 0.560263 6.53677 0.337467C7.07465 0.114672 7.65114 0 8.23333 0C8.81553 0 9.39202 0.114672 9.9299 0.337467C10.4678 0.560263 10.9565 0.88682 11.3682 1.29849C11.7798 1.71017 12.1064 2.19889 12.3292 2.73677C12.552 3.27465 12.6667 3.85114 12.6667 4.43333V7.6H14.5667C15.0706 7.6 15.5539 7.80018 15.9102 8.1565C16.2665 8.51282 16.4667 8.99609 16.4667 9.5V10.1967C17.1825 10.342 17.8261 10.7304 18.2884 11.296C18.7506 11.8615 19.0032 12.5695 19.0032 13.3C19.0032 14.0305 18.7506 14.7385 18.2884 15.304C17.8261 15.8696 17.1825 16.258 16.4667 16.4033V17.1C16.4667 17.6039 16.2665 18.0872 15.9102 18.4435C15.5539 18.7998 15.0706 19 14.5667 19H1.9C1.39609 19 0.912816 18.7998 0.556497 18.4435C0.200178 18.0872 0 17.6039 0 17.1L0 9.5C0 8.99609 0.200178 8.51282 0.556497 8.1565C0.912816 7.80018 1.39609 7.6 1.9 7.6H3.8ZM5.06667 4.43333C5.06667 3.59348 5.4003 2.78803 5.99416 2.19416C6.58803 1.6003 7.39348 1.26667 8.23333 1.26667C9.07319 1.26667 9.87864 1.6003 10.4725 2.19416C11.0664 2.78803 11.4 3.59348 11.4 4.43333V7.6H5.06667V4.43333ZM10.7667 11.4C10.2628 11.4 9.77948 11.6002 9.42316 11.9565C9.06684 12.3128 8.86667 12.7961 8.86667 13.3C8.86667 13.8039 9.06684 14.2872 9.42316 14.6435C9.77948 14.9998 10.2628 15.2 10.7667 15.2H15.8333C16.3372 15.2 16.8205 14.9998 17.1768 14.6435C17.5332 14.2872 17.7333 13.8039 17.7333 13.3C17.7333 12.7961 17.5332 12.3128 17.1768 11.9565C16.8205 11.6002 16.3372 11.4 15.8333 11.4H10.7667Z" fill="url(#paint1_linear_531_1768)"/>
</g>
<defs>
<linearGradient id="paint0_linear_531_1768" x1="10.8282" y1="13.9333" x2="15.56" y2="13.0455" gradientUnits="userSpaceOnUse">
<stop stop-color="#1FB3FC"/>
<stop offset="1" stop-color="#2AD35E"/>
</linearGradient>
<linearGradient id="paint1_linear_531_1768" x1="2.0864" y1="19" x2="16.7633" y2="18.4492" gradientUnits="userSpaceOnUse">
<stop stop-color="#1FB3FC"/>
<stop offset="1" stop-color="#2AD35E"/>
</linearGradient>
<clipPath id="clip0_531_1768">
<rect width="19" height="19" fill="white"/>
</clipPath>
</defs>
</svg>
