<svg width="20" height="21" viewBox="0 0 20 21" fill="none" xmlns="http://www.w3.org/2000/svg">
<g clip-path="url(#clip0_2315_706)">
<mask id="mask0_2315_706" style="mask-type:luminance" maskUnits="userSpaceOnUse" x="0" y="0" width="20" height="21">
<path d="M0 0.5H20V20.5H0V0.5Z" fill="white"/>
</mask>
<g mask="url(#mask0_2315_706)">
<path fill-rule="evenodd" clip-rule="evenodd" d="M0 8.00004C0 5.70671 1.87333 3.83337 4.16667 3.83337H15.8333C18.1267 3.83337 20 5.70671 20 8.00004V16.3334C20 18.6267 18.1267 20.5 15.8333 20.5H4.16667C1.87333 20.5 0 18.6267 0 16.3334V8.00004ZM4.16667 5.50004C2.79333 5.50004 1.66667 6.62671 1.66667 8.00004V16.3334C1.66667 17.7067 2.79333 18.8334 4.16667 18.8334H15.8333C17.2067 18.8334 18.3333 17.7067 18.3333 16.3334V8.00004C18.3333 6.62671 17.2067 5.50004 15.8333 5.50004H4.16667Z" fill="#7E8486"/>
<path fill-rule="evenodd" clip-rule="evenodd" d="M13.3334 12.1667C13.3334 10.79 14.4567 9.66667 15.8334 9.66667H19.1667C19.3878 9.66667 19.5997 9.75447 19.756 9.91075C19.9123 10.067 20.0001 10.279 20.0001 10.5V13.8333C20.0001 14.0544 19.9123 14.2663 19.756 14.4226C19.5997 14.5789 19.3878 14.6667 19.1667 14.6667H15.8334C14.4567 14.6667 13.3334 13.5433 13.3334 12.1667ZM15.8334 11.3333C15.3767 11.3333 15.0001 11.71 15.0001 12.1667C15.0001 12.6233 15.3767 13 15.8334 13H18.3334V11.3333H15.8334ZM14.2726 2.17083C14.3206 2.16839 14.3687 2.167 14.4167 2.16667C14.7059 2.16583 14.9992 2.45917 14.9992 2.74917V4.66667C14.9992 4.88768 15.087 5.09964 15.2433 5.25592C15.3996 5.4122 15.6116 5.5 15.8326 5.5C16.0536 5.5 16.2655 5.4122 16.4218 5.25592C16.5781 5.09964 16.6659 4.88768 16.6659 4.66667V2.75C16.6667 1.54 15.6267 0.500001 14.4167 0.500001H14.3917C14.2401 0.500001 13.9251 0.498334 13.5959 0.646667L4.71507 3.88333C4.6122 3.92076 4.51771 3.97808 4.437 4.05203C4.35628 4.12597 4.29092 4.21509 4.24465 4.31429C4.19837 4.4135 4.17209 4.52084 4.1673 4.63021C4.16251 4.73957 4.17931 4.8488 4.21674 4.95167C4.25417 5.05454 4.31149 5.14903 4.38543 5.22974C4.45938 5.31046 4.54849 5.37582 4.6477 5.42209C4.7469 5.46837 4.85425 5.49465 4.96361 5.49944C5.07297 5.50423 5.1822 5.48743 5.28507 5.45L14.2017 2.2C14.2255 2.19108 14.2489 2.18107 14.2717 2.17L14.2726 2.17083Z" fill="#7E8486"/>
</g>
</g>
<defs>
<clipPath id="clip0_2315_706">
<rect width="20" height="20" fill="white" transform="translate(0 0.5)"/>
</clipPath>
</defs>
</svg>
