<svg width="21" height="21" viewBox="0 0 21 21" fill="none" xmlns="http://www.w3.org/2000/svg">
<g clip-path="url(#clip0_531_1297)">
<g clip-path="url(#clip1_531_1297)">
<path d="M12.1738 12.8832C15.6975 12.8832 18.5643 9.99353 18.5643 6.44165C18.5643 2.88976 15.6975 0 12.1738 0C8.65001 0 5.7832 2.88972 5.7832 6.4416C5.7832 9.99349 8.65001 12.8832 12.1738 12.8832ZM10.1203 8.45173C10.3062 8.16758 10.6873 8.08781 10.9714 8.27379C11.3855 8.54462 11.5417 8.56958 12.0881 8.56577C12.6214 8.56224 12.9308 8.16475 12.9926 7.7969C13.0227 7.61797 13.0342 7.18104 12.4927 6.98962C11.8576 6.76507 11.2075 6.50842 10.7553 6.15372C10.3031 5.79903 10.096 5.1867 10.2149 4.5558C10.3438 3.87187 10.8209 3.32742 11.4601 3.13493C11.4659 3.1332 11.4715 3.13181 11.4773 3.13009V2.89701C11.4773 2.55744 11.7526 2.28214 12.0922 2.28214C12.4317 2.28214 12.707 2.55744 12.707 2.89701V3.09135C13.1246 3.19104 13.4163 3.3821 13.5347 3.4706C13.8067 3.67396 13.8624 4.05924 13.659 4.33125C13.4557 4.60327 13.0705 4.65894 12.7984 4.45554C12.6724 4.36134 12.3242 4.15884 11.8147 4.31236C11.5171 4.40205 11.4399 4.69571 11.4233 4.78355C11.3908 4.95616 11.4273 5.11796 11.5142 5.18608C11.8277 5.43195 12.392 5.64965 12.9026 5.83014C13.8441 6.16295 14.3676 7.03524 14.2053 8.00075C14.1257 8.47448 13.8874 8.91399 13.5342 9.23843C13.2937 9.45946 13.0137 9.61703 12.707 9.707V9.9862C12.707 10.3258 12.4317 10.6011 12.0922 10.6011C11.7526 10.6011 11.4773 10.3258 11.4773 9.9862V9.76833C11.0797 9.72012 10.746 9.5958 10.2982 9.30287C10.0141 9.11698 9.93438 8.73588 10.1203 8.45173Z" fill="#A0AEB9"/>
<path d="M2.33033 14.9492H0.928345C0.588773 14.9492 0.313477 15.2245 0.313477 15.5641V20.3842C0.313477 20.7238 0.588773 20.9991 0.928345 20.9991H2.33037V14.9492H2.33033Z" fill="#A0AEB9"/>
<path d="M20.5053 14.9063C19.3529 13.7539 17.4777 13.7538 16.3253 14.9063L14.4834 16.7482L13.7285 17.5031C13.4234 17.8082 13.0095 17.9797 12.5781 17.9797H8.90712C8.57559 17.9797 8.29029 17.7249 8.27467 17.3937C8.25803 17.0401 8.53976 16.7482 8.8897 16.7482H12.621C13.3712 16.7482 14.0219 16.2141 14.1508 15.475C14.1805 15.3053 14.1959 15.1308 14.1959 14.9528C14.196 14.6126 13.9204 14.3366 13.5802 14.3366H11.5357C10.8675 14.3366 10.2259 14.0335 9.54655 13.7125C8.83399 13.3759 8.09722 13.0279 7.2357 12.9706C6.4822 12.9204 5.72698 13.0029 4.9909 13.2154C4.20276 13.443 3.63622 14.1432 3.56752 14.9516C3.5649 14.9514 3.56223 14.9514 3.55957 14.9512V20.9971L14.1528 21C14.8811 21 15.5659 20.7163 16.081 20.2013L20.5052 15.7771C20.7458 15.5367 20.7458 15.1468 20.5053 14.9063Z" fill="#A0AEB9"/>
</g>
</g>
<defs>
<clipPath id="clip0_531_1297">
<rect width="21" height="21" fill="white"/>
</clipPath>
<clipPath id="clip1_531_1297">
<rect width="21" height="21" fill="white"/>
</clipPath>
</defs>
</svg>
