<svg width="21" height="21" viewBox="0 0 21 21" fill="none" xmlns="http://www.w3.org/2000/svg">
<g clip-path="url(#clip0_531_1305)">
<path d="M11 10.5C13.8406 10.5 16.1429 8.1498 16.1429 5.25C16.1429 2.3502 13.8406 0 11 0C8.15938 0 5.85714 2.3502 5.85714 5.25C5.85714 8.1498 8.15938 10.5 11 10.5ZM14.6 11.8125H13.929C13.0371 12.2309 12.0446 12.4688 11 12.4688C9.95536 12.4688 8.96696 12.2309 8.07098 11.8125H7.4C4.41875 11.8125 2 14.2816 2 17.325V19.0312C2 20.1182 2.86384 21 3.92857 21H18.0714C19.1362 21 20 20.1182 20 19.0312V17.325C20 14.2816 17.5813 11.8125 14.6 11.8125Z" fill="#A0AEB9"/>
</g>
<defs>
<clipPath id="clip0_531_1305">
<rect width="18" height="21" fill="white" transform="translate(2)"/>
</clipPath>
</defs>
</svg>
