<?xml version="1.0" encoding="UTF-8" standalone="no" ?>
<!DOCTYPE svg PUBLIC "-//W3C//DTD SVG 1.1//EN" "http://www.w3.org/Graphics/SVG/1.1/DTD/svg11.dtd">
<svg width="25" height="25" viewBox="0 0 25 25" fill="none" xmlns="http://www.w3.org/2000/svg"><path d="M23.9998 19.2432L18.2982 19.2432" stroke="#353636" stroke-linecap="round"></path><path d="M7.80302 3.79279e-06C6.7644 -0.00129036 5.75243 0.328636 4.91416 0.941842C4.07588 1.55505 3.45498 2.41958 3.14168 3.40982C2.82837 4.40005 2.83899 5.46439 3.17199 6.44818C3.50498 7.43197 4.14301 8.28394 4.99335 8.8803C3.52185 9.46837 2.25998 10.4833 1.37011 11.7945C0.480231 13.1057 0.00306284 14.6532 0 16.2379C0.012061 16.4339 0.0984471 16.618 0.241546 16.7526C0.384644 16.8871 0.57368 16.962 0.770111 16.962C0.966543 16.962 1.15558 16.8871 1.29868 16.7526C1.44178 16.618 1.52816 16.4339 1.54022 16.2379C1.53765 15.0998 1.83971 13.9818 2.41506 12.9999C2.99041 12.0179 3.81808 11.2079 4.81216 10.6538C5.80623 10.0997 6.93049 9.8218 8.06824 9.84887C9.20599 9.87594 10.3158 10.207 11.2824 10.8078C11.3688 10.8613 11.4649 10.8973 11.5652 10.9137C11.6655 10.9301 11.7681 10.9265 11.867 10.9033C11.966 10.88 12.0594 10.8375 12.1419 10.7782C12.2244 10.7188 12.2945 10.6438 12.348 10.5574C12.4015 10.471 12.4375 10.3749 12.4539 10.2745C12.4703 10.1742 12.4667 10.0716 12.4435 9.97269C12.4202 9.87374 12.3777 9.78034 12.3184 9.69781C12.259 9.61529 12.184 9.54526 12.0976 9.49173C11.6502 9.22243 11.1771 8.99812 10.6855 8.82207C11.8996 7.93404 12.6945 6.50446 12.6945 4.89145C12.6945 2.20407 10.4904 3.79279e-06 7.80302 3.79279e-06ZM7.80302 1.54314C9.65769 1.54314 11.1513 3.03678 11.1513 4.89145C11.1513 6.74612 9.65769 8.23685 7.80302 8.23685C5.94835 8.23685 4.45762 6.75194 4.45762 4.89145C4.45762 3.03678 5.94543 1.54314 7.80302 1.54314Z" fill="#353636"></path><path d="M14.6988 4.95118C13.5008 4.94977 12.3335 5.33037 11.3666 6.03768L11.8094 6.64301L11.3666 6.03768C10.3996 6.74508 9.68331 7.74241 9.32188 8.88475C8.96045 10.0271 8.9727 11.2549 9.35684 12.3898C9.61031 13.1387 10.017 13.8213 10.5461 14.3967C9.39092 15.0523 8.39657 15.9668 7.64479 17.0745C6.67086 18.5096 6.14862 20.2032 6.14527 21.9376L6.14522 21.9613L6.14668 21.9851C6.17046 22.3717 6.34082 22.7347 6.62302 23.0001C6.90521 23.2655 7.278 23.4132 7.66538 23.4132C8.05275 23.4132 8.42554 23.2655 8.70773 23.0001C8.98993 22.7347 9.16029 22.3717 9.18407 21.9851L9.18554 21.9612L9.18548 21.9373C9.18321 20.9331 9.44974 19.9466 9.95742 19.0802C10.4651 18.2138 11.1954 17.499 12.0726 17.0101C12.9497 16.5212 13.9417 16.2759 14.9457 16.2998C15.9496 16.3237 16.9288 16.6159 17.7817 17.1459L17.7827 17.1465C17.9528 17.2519 18.142 17.3228 18.3396 17.355C18.5371 17.3873 18.739 17.3803 18.9338 17.3346C19.1287 17.2888 19.3126 17.2051 19.4751 17.0882C19.6376 16.9714 19.7754 16.8236 19.8808 16.6535L19.2432 16.2585L19.8808 16.6535C19.9862 16.4834 20.0571 16.2941 20.0893 16.0966C20.1216 15.8991 20.1146 15.6971 20.0689 15.5023C20.0231 15.3075 19.9394 15.1236 19.8225 14.9611C19.7057 14.7986 19.558 14.6607 19.3878 14.5553L19.3879 14.5553L19.3796 14.5503C19.2331 14.4621 19.0841 14.3784 18.9328 14.2991C19.8051 13.3109 20.3397 12.0147 20.3397 10.5926C20.3397 7.49119 17.8002 4.95145 14.6988 4.95118ZM14.6988 4.95118C14.6986 4.95118 14.6985 4.95118 14.6983 4.95118V5.70118L14.6992 4.95118C14.6991 4.95118 14.6989 4.95118 14.6988 4.95118ZM14.6983 7.99431C16.1387 7.99431 17.2966 9.15216 17.2966 10.5926C17.2966 12.0322 16.1396 13.188 14.6983 13.188C13.257 13.188 12.1029 12.0381 12.1029 10.5926C12.1029 9.15088 13.2562 7.99431 14.6983 7.99431Z" fill="#353636" stroke="#DDF6EB" stroke-width="1.5"></path><path d="M21.1494 16.3916L21.1494 22.0932" stroke="#353636" stroke-linecap="round"></path></svg>