<svg width="20" height="20" viewBox="0 0 20 20" fill="none" xmlns="http://www.w3.org/2000/svg">
<path fill-rule="evenodd" clip-rule="evenodd" d="M6.19649 2.50727C6.19649 2.17786 6.26438 1.85168 6.3963 1.54736C6.52821 1.24305 6.72155 0.966566 6.96528 0.733721C7.209 0.500875 7.49833 0.316229 7.81673 0.190333C8.13513 0.0644381 8.47636 -0.000238219 8.82091 6.59299e-07H11.1819C11.8773 0.000241708 12.5441 0.264506 13.0357 0.734685C13.5273 1.20486 13.8035 1.84246 13.8035 2.50727C13.8035 3.03818 14.4045 3.37 14.8856 3.10455C15.1839 2.93986 15.5132 2.83298 15.8547 2.79C16.1963 2.74702 16.5433 2.76878 16.876 2.85404C17.2087 2.93931 17.5206 3.0864 17.7939 3.28693C18.0671 3.48746 18.2964 3.73748 18.4685 4.02273L19.6486 5.97727C19.8208 6.26247 19.9326 6.57731 19.9776 6.90382C20.0225 7.23033 19.9998 7.56211 19.9106 7.88021C19.8214 8.1983 19.6675 8.49649 19.4578 8.75772C19.2481 9.01896 18.9865 9.23814 18.6882 9.40273C18.5784 9.46314 18.4871 9.55016 18.4237 9.65502C18.3603 9.75988 18.3269 9.87887 18.3269 10C18.3269 10.1211 18.3603 10.2401 18.4237 10.345C18.4871 10.4498 18.5784 10.5369 18.6882 10.5973C18.9865 10.7619 19.2481 10.981 19.4578 11.2423C19.6675 11.5035 19.8214 11.8017 19.9106 12.1198C19.9998 12.4379 20.0225 12.7697 19.9776 13.0962C19.9326 13.4227 19.8208 13.7375 19.6486 14.0227L18.4685 15.9773C18.2964 16.2625 18.0671 16.5125 17.7939 16.7131C17.5206 16.9136 17.2087 17.0607 16.876 17.146C16.5433 17.2312 16.1963 17.253 15.8547 17.21C15.5132 17.167 15.1839 17.0601 14.8856 16.8955C14.776 16.8347 14.6515 16.8027 14.5248 16.8026C14.3981 16.8025 14.2736 16.8344 14.1639 16.8949C14.0542 16.9555 13.9631 17.0426 13.8998 17.1476C13.8365 17.2525 13.8033 17.3716 13.8035 17.4927C13.8035 18.1577 13.5272 18.7954 13.0354 19.2656C12.5436 19.7358 11.8765 20 11.181 20H8.81996C8.47549 20.0001 8.13436 19.9354 7.81607 19.8094C7.49778 19.6835 7.20857 19.4988 6.96494 19.266C6.72132 19.0331 6.52806 18.7567 6.39621 18.4524C6.26435 18.1482 6.19649 17.8221 6.19649 17.4927C6.19658 17.3717 6.16334 17.2528 6.10012 17.148C6.0369 17.0432 5.94592 16.9561 5.83633 16.8956C5.72675 16.835 5.60242 16.8032 5.47585 16.8031C5.34929 16.8031 5.22495 16.835 5.11534 16.8955C4.81704 17.0601 4.48772 17.167 4.1462 17.21C3.80468 17.253 3.45766 17.2312 3.12494 17.146C2.79222 17.0607 2.48033 16.9136 2.20708 16.7131C1.93384 16.5125 1.70459 16.2625 1.53243 15.9773L0.351439 14.0227C0.179187 13.7375 0.0673894 13.4227 0.022432 13.0962C-0.0225254 12.7697 0.000237972 12.4379 0.0894221 12.1198C0.178606 11.8017 0.332464 11.5035 0.542207 11.2423C0.751949 10.981 1.01347 10.7619 1.31183 10.5973C1.42164 10.5369 1.51286 10.4498 1.57629 10.345C1.63972 10.2401 1.67312 10.1211 1.67312 10C1.67312 9.87887 1.63972 9.75988 1.57629 9.65502C1.51286 9.55016 1.42164 9.46314 1.31183 9.40273C1.01347 9.23814 0.751949 9.01896 0.542207 8.75772C0.332464 8.49649 0.178606 8.1983 0.0894221 7.88021C0.000237972 7.56211 -0.0225254 7.23033 0.022432 6.90382C0.0673894 6.57731 0.179187 6.26247 0.351439 5.97727L1.53243 4.02273C1.70459 3.73748 1.93384 3.48746 2.20708 3.28693C2.48033 3.0864 2.79222 2.93931 3.12494 2.85404C3.45766 2.76878 3.80468 2.74702 4.1462 2.79C4.48772 2.83298 4.81704 2.93986 5.11534 3.10455C5.22495 3.16505 5.34929 3.19689 5.47585 3.19687C5.60242 3.19685 5.72675 3.16496 5.83633 3.10442C5.94592 3.04388 6.0369 2.95682 6.10012 2.85199C6.16334 2.74717 6.19658 2.62828 6.19649 2.50727ZM8.82091 1.81818C8.72618 1.81806 8.63235 1.8358 8.54479 1.87038C8.45724 1.90495 8.37767 1.95569 8.31064 2.01969C8.24361 2.08369 8.19043 2.1597 8.15415 2.24336C8.11787 2.32702 8.09919 2.4167 8.09919 2.50727C8.09919 4.43818 5.91408 5.64364 4.16541 4.67909C4.08339 4.63379 3.99282 4.60439 3.89891 4.59257C3.80499 4.58075 3.70955 4.58675 3.61806 4.61022C3.52657 4.6337 3.44081 4.67418 3.3657 4.72936C3.29058 4.78454 3.22758 4.85334 3.1803 4.93182L1.99931 6.88636C1.95192 6.96478 1.92117 7.05137 1.90881 7.14116C1.89645 7.23095 1.90273 7.32219 1.92728 7.40966C1.95183 7.49713 1.99417 7.57912 2.05189 7.65093C2.10961 7.72275 2.18157 7.78298 2.26365 7.82818C4.01232 8.79364 4.01232 11.2064 2.26365 12.1718C2.18157 12.217 2.10961 12.2773 2.05189 12.3491C1.99417 12.4209 1.95183 12.5029 1.92728 12.5903C1.90273 12.6778 1.89645 12.7691 1.90881 12.8588C1.92117 12.9486 1.95192 13.0352 1.99931 13.1136L3.1803 15.0682C3.22758 15.1467 3.29058 15.2155 3.3657 15.2706C3.44081 15.3258 3.52657 15.3663 3.61806 15.3898C3.70955 15.4132 3.80499 15.4192 3.89891 15.4074C3.99282 15.3956 4.08339 15.3662 4.16541 15.3209C5.91313 14.3545 8.09824 15.5618 8.09824 17.4927C8.09824 17.8727 8.42154 18.1818 8.81996 18.1818H11.181C11.5794 18.1818 11.9018 17.8727 11.9018 17.4927C11.9018 15.5618 14.0878 14.3564 15.8365 15.32C15.9185 15.3653 16.009 15.3948 16.1028 15.4067C16.1967 15.4186 16.2921 15.4126 16.3836 15.3893C16.4751 15.3659 16.5609 15.3255 16.636 15.2704C16.7112 15.2153 16.7742 15.1466 16.8216 15.0682L18.0016 13.1136C18.0491 13.0353 18.0799 12.9487 18.0923 12.859C18.1047 12.7692 18.0985 12.678 18.0741 12.5905C18.0496 12.5031 18.0074 12.4211 17.9497 12.3492C17.8921 12.2774 17.8203 12.2171 17.7382 12.1718C15.9886 11.2064 15.9886 8.79364 17.7382 7.82818C17.8203 7.7829 17.8921 7.72262 17.9497 7.65077C18.0074 7.57892 18.0496 7.49692 18.0741 7.40946C18.0985 7.32199 18.1047 7.23077 18.0923 7.14102C18.0799 7.05126 18.0491 6.96473 18.0016 6.88636L16.8216 4.93182C16.7743 4.85334 16.7113 4.78454 16.6362 4.72936C16.5611 4.67418 16.4753 4.6337 16.3838 4.61022C16.2923 4.58675 16.1969 4.58075 16.103 4.59257C16.0091 4.60439 15.9185 4.63379 15.8365 4.67909C14.0869 5.64546 11.9018 4.43818 11.9018 2.50727C11.9018 2.32452 11.8258 2.14924 11.6906 2.02001C11.5555 1.89078 11.3721 1.81818 11.181 1.81818H8.82091ZM10 7.27273C9.24343 7.27273 8.51785 7.56006 7.98288 8.07153C7.44791 8.58299 7.14737 9.27668 7.14737 10C7.14737 10.7233 7.44791 11.417 7.98288 11.9285C8.51785 12.4399 9.24343 12.7273 10 12.7273C10.7566 12.7273 11.4821 12.4399 12.0171 11.9285C12.5521 11.417 12.8526 10.7233 12.8526 10C12.8526 9.27668 12.5521 8.58299 12.0171 8.07153C11.4821 7.56006 10.7566 7.27273 10 7.27273ZM5.24561 10C5.24561 8.79447 5.74652 7.63832 6.63814 6.78588C7.52976 5.93344 8.73906 5.45455 10 5.45455C11.2609 5.45455 12.4702 5.93344 13.3619 6.78588C14.2535 7.63832 14.7544 8.79447 14.7544 10C14.7544 11.2055 14.2535 12.3617 13.3619 13.2141C12.4702 14.0666 11.2609 14.5455 10 14.5455C8.73906 14.5455 7.52976 14.0666 6.63814 13.2141C5.74652 12.3617 5.24561 11.2055 5.24561 10Z" fill="#40C067"/>
</svg>
