<svg width="21" height="20" viewBox="0 0 21 20" fill="none" xmlns="http://www.w3.org/2000/svg">
<path d="M10.0334 4.47178e-06C8.80888 -0.00152137 7.61574 0.38747 6.62739 1.11045C5.63905 1.83344 4.90699 2.85274 4.5376 4.02025C4.16821 5.18776 4.18073 6.44264 4.57334 7.60255C4.96595 8.76246 5.71819 9.76696 6.72077 10.4701C4.98584 11.1634 3.49806 12.3601 2.44888 13.906C1.3997 15.4519 0.837107 17.2765 0.833496 19.1448C0.847716 19.376 0.949567 19.593 1.11828 19.7516C1.287 19.9103 1.50988 19.9986 1.74147 19.9986C1.97307 19.9986 2.19595 19.9103 2.36467 19.7516C2.53338 19.593 2.63523 19.376 2.64945 19.1448C2.64641 17.803 3.00255 16.4848 3.6809 15.3271C4.35925 14.1694 5.33509 13.2143 6.50713 12.5611C7.67917 11.9078 9.0047 11.5801 10.3461 11.612C11.6876 11.644 12.996 12.0343 14.1356 12.7426C14.2375 12.8057 14.3508 12.8481 14.4691 12.8675C14.5874 12.8868 14.7083 12.8826 14.825 12.8552C14.9417 12.8278 15.0518 12.7777 15.1491 12.7077C15.2464 12.6377 15.3289 12.5493 15.392 12.4474C15.4552 12.3455 15.4976 12.2322 15.5169 12.1139C15.5362 11.9956 15.5321 11.8747 15.5046 11.758C15.4772 11.6414 15.4271 11.5312 15.3571 11.4339C15.2872 11.3366 15.1987 11.2541 15.0968 11.191C14.5693 10.8735 14.0116 10.609 13.4319 10.4014C14.8634 9.35441 15.8005 7.6689 15.8005 5.76713C15.8005 2.59864 13.2019 4.47178e-06 10.0334 4.47178e-06ZM10.0334 1.81939C12.2201 1.81939 13.9812 3.58043 13.9812 5.76713C13.9812 7.95383 12.2201 9.71143 10.0334 9.71143C7.84673 9.71143 6.08913 7.96069 6.08913 5.76713C6.08913 3.58043 7.84329 1.81939 10.0334 1.81939ZM19.2231 12.722C19.0756 12.7262 18.9313 12.7662 18.8027 12.8386C18.6742 12.9109 18.5651 13.0135 18.485 13.1374L15.3543 17.83L13.3907 16.5153C13.2913 16.4419 13.178 16.3894 13.0578 16.3611C12.9375 16.3328 12.8128 16.3291 12.6911 16.3504C12.5693 16.3717 12.4532 16.4175 12.3497 16.485C12.2462 16.5524 12.1575 16.6402 12.0889 16.743C12.0203 16.8458 11.9733 16.9614 11.9507 17.0828C11.9281 17.2043 11.9304 17.3291 11.9574 17.4497C11.9844 17.5702 12.0356 17.6841 12.1079 17.7842C12.1803 17.8844 12.2721 17.9689 12.378 18.0326L15.1071 19.8485C15.3079 19.9817 15.5534 20.0297 15.7896 19.982C16.0258 19.9344 16.2334 19.795 16.367 19.5945L20.0023 14.1432C20.0967 14.0045 20.1509 13.8425 20.159 13.675C20.167 13.5075 20.1286 13.341 20.048 13.1939C19.9673 13.0469 19.8476 12.925 19.702 12.8417C19.5565 12.7584 19.3907 12.717 19.2231 12.722Z" fill="#40C067"/>
</svg>
