<svg width="28" height="28" viewBox="0 0 28 28" fill="none" xmlns="http://www.w3.org/2000/svg">
<path d="M27 14C27 14.2851 26.7719 14.5132 26.4868 14.5132H23.0658C22.7807 14.5132 22.5526 14.2851 22.5526 14C22.5526 13.7149 22.7807 13.4868 23.0658 13.4868H26.4868C26.7719 13.4868 27 13.7149 27 14Z" fill="#40C067"/>
<path d="M14 27C13.7149 27 13.4868 26.7719 13.4868 26.4868V23.0658C13.4868 22.7807 13.7149 22.5526 14 22.5526C14.2851 22.5526 14.5132 22.7807 14.5132 23.0658V26.4868C14.5132 26.7719 14.2851 27 14 27Z" fill="#40C067"/>
<path d="M14 20.5513C10.3908 20.5513 7.44868 17.6149 7.44868 14C7.44868 10.3908 10.3851 7.44868 14 7.44868C17.6092 7.44868 20.5513 10.3851 20.5513 14C20.5513 17.6092 17.6092 20.5513 14 20.5513ZM14 8.45219C10.9439 8.45219 8.45219 10.9382 8.45219 14C8.45219 17.0561 10.9382 19.5478 14 19.5478C17.0561 19.5478 19.5478 17.0618 19.5478 14C19.5478 10.9439 17.0561 8.45219 14 8.45219Z" fill="#40C067"/>
<path d="M5.44737 14C5.44737 14.2851 5.2193 14.5132 4.93421 14.5132H1.51316C1.22807 14.5132 1 14.2851 1 14C1 13.7149 1.22807 13.4868 1.51316 13.4868H4.93421C5.2193 13.4868 5.44737 13.7149 5.44737 14Z" fill="#40C067"/>
<path d="M14 5.44737C13.7149 5.44737 13.4868 5.2193 13.4868 4.93421V1.51316C13.4868 1.22807 13.7149 1 14 1C14.2851 1 14.5132 1.22807 14.5132 1.51316V4.93421C14.5132 5.2193 14.2851 5.44737 14 5.44737Z" fill="#40C067"/>
<path d="M7.95044 7.95044C7.75088 8.15 7.42588 8.15 7.22632 7.95044L4.80877 5.53289C4.60921 5.33333 4.60921 5.00833 4.80877 4.80877C5.00833 4.60921 5.33333 4.60921 5.53289 4.80877L7.95044 7.22632C8.1557 7.42588 8.1557 7.75088 7.95044 7.95044Z" fill="#40C067"/>
<path d="M23.1912 23.1912C22.9917 23.3908 22.6667 23.3908 22.4671 23.1912L20.0496 20.7737C19.85 20.5741 19.85 20.2491 20.0496 20.0496C20.2491 19.85 20.5741 19.85 20.7737 20.0496L23.1912 22.4671C23.3908 22.6667 23.3908 22.9917 23.1912 23.1912Z" fill="#40C067"/>
<path d="M7.95044 20.0496C8.15 20.2491 8.15 20.5741 7.95044 20.7737L5.53289 23.1912C5.33333 23.3908 5.00833 23.3908 4.80877 23.1912C4.60921 22.9917 4.60921 22.6667 4.80877 22.4671L7.22632 20.0496C7.42588 19.85 7.75088 19.85 7.95044 20.0496Z" fill="#40C067"/>
<path d="M23.1912 4.80877C23.3908 5.00833 23.3908 5.33333 23.1912 5.53289L20.7737 7.95044C20.5741 8.15 20.2491 8.15 20.0496 7.95044C19.85 7.75088 19.85 7.42588 20.0496 7.22632L22.4671 4.80877C22.6667 4.60921 22.9917 4.60921 23.1912 4.80877Z" fill="#40C067"/>
<path d="M27 14C27 14.2851 26.7719 14.5132 26.4868 14.5132H23.0658C22.7807 14.5132 22.5526 14.2851 22.5526 14C22.5526 13.7149 22.7807 13.4868 23.0658 13.4868H26.4868C26.7719 13.4868 27 13.7149 27 14Z" stroke="#40C067" stroke-width="1.4"/>
<path d="M14 27C13.7149 27 13.4868 26.7719 13.4868 26.4868V23.0658C13.4868 22.7807 13.7149 22.5526 14 22.5526C14.2851 22.5526 14.5132 22.7807 14.5132 23.0658V26.4868C14.5132 26.7719 14.2851 27 14 27Z" stroke="#40C067" stroke-width="1.4"/>
<path d="M14 20.5513C10.3908 20.5513 7.44868 17.6149 7.44868 14C7.44868 10.3908 10.3851 7.44868 14 7.44868C17.6092 7.44868 20.5513 10.3851 20.5513 14C20.5513 17.6092 17.6092 20.5513 14 20.5513ZM14 8.45219C10.9439 8.45219 8.45219 10.9382 8.45219 14C8.45219 17.0561 10.9382 19.5478 14 19.5478C17.0561 19.5478 19.5478 17.0618 19.5478 14C19.5478 10.9439 17.0561 8.45219 14 8.45219Z" stroke="#40C067" stroke-width="1.4"/>
<path d="M5.44737 14C5.44737 14.2851 5.2193 14.5132 4.93421 14.5132H1.51316C1.22807 14.5132 1 14.2851 1 14C1 13.7149 1.22807 13.4868 1.51316 13.4868H4.93421C5.2193 13.4868 5.44737 13.7149 5.44737 14Z" stroke="#40C067" stroke-width="1.4"/>
<path d="M14 5.44737C13.7149 5.44737 13.4868 5.2193 13.4868 4.93421V1.51316C13.4868 1.22807 13.7149 1 14 1C14.2851 1 14.5132 1.22807 14.5132 1.51316V4.93421C14.5132 5.2193 14.2851 5.44737 14 5.44737Z" stroke="#40C067" stroke-width="1.4"/>
<path d="M7.95044 7.95044C7.75088 8.15 7.42588 8.15 7.22632 7.95044L4.80877 5.53289C4.60921 5.33333 4.60921 5.00833 4.80877 4.80877C5.00833 4.60921 5.33333 4.60921 5.53289 4.80877L7.95044 7.22632C8.1557 7.42588 8.1557 7.75088 7.95044 7.95044Z" stroke="#40C067" stroke-width="1.4"/>
<path d="M23.1912 23.1912C22.9917 23.3908 22.6667 23.3908 22.4671 23.1912L20.0496 20.7737C19.85 20.5741 19.85 20.2491 20.0496 20.0496C20.2491 19.85 20.5741 19.85 20.7737 20.0496L23.1912 22.4671C23.3908 22.6667 23.3908 22.9917 23.1912 23.1912Z" stroke="#40C067" stroke-width="1.4"/>
<path d="M7.95044 20.0496C8.15 20.2491 8.15 20.5741 7.95044 20.7737L5.53289 23.1912C5.33333 23.3908 5.00833 23.3908 4.80877 23.1912C4.60921 22.9917 4.60921 22.6667 4.80877 22.4671L7.22632 20.0496C7.42588 19.85 7.75088 19.85 7.95044 20.0496Z" stroke="#40C067" stroke-width="1.4"/>
<path d="M23.1912 4.80877C23.3908 5.00833 23.3908 5.33333 23.1912 5.53289L20.7737 7.95044C20.5741 8.15 20.2491 8.15 20.0496 7.95044C19.85 7.75088 19.85 7.42588 20.0496 7.22632L22.4671 4.80877C22.6667 4.60921 22.9917 4.60921 23.1912 4.80877Z" stroke="#40C067" stroke-width="1.4"/>
</svg>
