<svg width="18" height="19" viewBox="0 0 18 19" fill="none" xmlns="http://www.w3.org/2000/svg">
<g clip-path="url(#clip0_531_1773)">
<path d="M9 9.5C11.8406 9.5 14.1429 7.37363 14.1429 4.75C14.1429 2.12637 11.8406 0 9 0C6.15938 0 3.85714 2.12637 3.85714 4.75C3.85714 7.37363 6.15938 9.5 9 9.5ZM12.6 10.6875H11.929C11.0371 11.066 10.0446 11.2812 9 11.2812C7.95536 11.2812 6.96696 11.066 6.07098 10.6875H5.4C2.41875 10.6875 0 12.9215 0 15.675V17.2188C0 18.2021 0.863839 19 1.92857 19H16.0714C17.1362 19 18 18.2021 18 17.2188V15.675C18 12.9215 15.5813 10.6875 12.6 10.6875Z" fill="url(#paint0_linear_531_1773)"/>
</g>
<defs>
<linearGradient id="paint0_linear_531_1773" x1="1.97626" y1="19" x2="15.8804" y2="18.5057" gradientUnits="userSpaceOnUse">
<stop stop-color="#1FB3FC"/>
<stop offset="1" stop-color="#2AD35E"/>
</linearGradient>
<clipPath id="clip0_531_1773">
<rect width="18" height="19" fill="white"/>
</clipPath>
</defs>
</svg>
