<svg width="20" height="20" viewBox="0 0 20 20" fill="none" xmlns="http://www.w3.org/2000/svg">
<g clip-path="url(#clip0_847_7512)">
<mask id="mask0_847_7512" style="mask-type:luminance" maskUnits="userSpaceOnUse" x="0" y="0" width="20" height="20">
<path d="M0 0H20V20H0V0Z" fill="white"/>
</mask>
<g mask="url(#mask0_847_7512)">
<path fill-rule="evenodd" clip-rule="evenodd" d="M0 7.50004C0 5.20671 1.87333 3.33337 4.16667 3.33337H15.8333C18.1267 3.33337 20 5.20671 20 7.50004V15.8334C20 18.1267 18.1267 20 15.8333 20H4.16667C1.87333 20 0 18.1267 0 15.8334V7.50004ZM4.16667 5.00004C2.79333 5.00004 1.66667 6.12671 1.66667 7.50004V15.8334C1.66667 17.2067 2.79333 18.3334 4.16667 18.3334H15.8333C17.2067 18.3334 18.3333 17.2067 18.3333 15.8334V7.50004C18.3333 6.12671 17.2067 5.00004 15.8333 5.00004H4.16667Z" fill="#40C067"/>
<path fill-rule="evenodd" clip-rule="evenodd" d="M13.3334 11.6667C13.3334 10.29 14.4567 9.16667 15.8334 9.16667H19.1667C19.3878 9.16667 19.5997 9.25447 19.756 9.41075C19.9123 9.56703 20.0001 9.77899 20.0001 10V13.3333C20.0001 13.5544 19.9123 13.7663 19.756 13.9226C19.5997 14.0789 19.3878 14.1667 19.1667 14.1667H15.8334C14.4567 14.1667 13.3334 13.0433 13.3334 11.6667ZM15.8334 10.8333C15.3767 10.8333 15.0001 11.21 15.0001 11.6667C15.0001 12.1233 15.3767 12.5 15.8334 12.5H18.3334V10.8333H15.8334ZM14.2726 1.67083C14.3206 1.66839 14.3687 1.667 14.4167 1.66667C14.7059 1.66583 14.9992 1.95917 14.9992 2.24917V4.16667C14.9992 4.38768 15.087 4.59964 15.2433 4.75592C15.3996 4.9122 15.6116 5 15.8326 5C16.0536 5 16.2655 4.9122 16.4218 4.75592C16.5781 4.59964 16.6659 4.38768 16.6659 4.16667V2.25C16.6667 1.04 15.6267 8.05061e-07 14.4167 8.05061e-07H14.3917C14.2401 8.05061e-07 13.9251 -0.00166586 13.5959 0.146667L4.71507 3.38333C4.6122 3.42076 4.51771 3.47808 4.437 3.55203C4.35628 3.62597 4.29092 3.71509 4.24465 3.81429C4.19837 3.9135 4.17209 4.02084 4.1673 4.13021C4.16251 4.23957 4.17931 4.3488 4.21674 4.45167C4.25417 4.55454 4.31149 4.64903 4.38543 4.72974C4.45938 4.81046 4.54849 4.87582 4.6477 4.92209C4.7469 4.96837 4.85425 4.99465 4.96361 4.99944C5.07297 5.00423 5.1822 4.98743 5.28507 4.95L14.2017 1.7C14.2255 1.69108 14.2489 1.68107 14.2717 1.67L14.2726 1.67083Z" fill="#40C067"/>
</g>
</g>
<defs>
<clipPath id="clip0_847_7512">
<rect width="20" height="20" fill="white"/>
</clipPath>
</defs>
</svg>
