<svg width="20" height="21" viewBox="0 0 20 21" fill="none" xmlns="http://www.w3.org/2000/svg">
<path fill-rule="evenodd" clip-rule="evenodd" d="M17.2467 9.59091H2.75335C2.02311 9.59091 1.32279 9.30357 0.806436 8.79211C0.290084 8.28065 0 7.58695 0 6.86364V3.22727C0 2.50396 0.290084 1.81026 0.806436 1.2988C1.32279 0.787337 2.02311 0.5 2.75335 0.5H17.2467C17.9769 0.5 18.6772 0.787337 19.1936 1.2988C19.7099 1.81026 20 2.50396 20 3.22727V6.86364C20 7.58695 19.7099 8.28065 19.1936 8.79211C18.6772 9.30357 17.9769 9.59091 17.2467 9.59091ZM2.75335 2.31818C2.50994 2.31818 2.27649 2.41396 2.10438 2.58445C1.93226 2.75494 1.83556 2.98617 1.83556 3.22727V6.86364C1.83556 7.10474 1.93226 7.33597 2.10438 7.50646C2.27649 7.67695 2.50994 7.77273 2.75335 7.77273H17.2467C17.4901 7.77273 17.7235 7.67695 17.8956 7.50646C18.0677 7.33597 18.1644 7.10474 18.1644 6.86364V3.22727C18.1644 2.98617 18.0677 2.75494 17.8956 2.58445C17.7235 2.41396 17.4901 2.31818 17.2467 2.31818H2.75335ZM17.2467 20.5H2.75335C2.02311 20.5 1.32279 20.2127 0.806436 19.7012C0.290084 19.1897 0 18.496 0 17.7727V14.1364C0 13.413 0.290084 12.7194 0.806436 12.2079C1.32279 11.6964 2.02311 11.4091 2.75335 11.4091H17.2467C17.9769 11.4091 18.6772 11.6964 19.1936 12.2079C19.7099 12.7194 20 13.413 20 14.1364V17.7727C20 18.496 19.7099 19.1897 19.1936 19.7012C18.6772 20.2127 17.9769 20.5 17.2467 20.5ZM2.75335 13.2273C2.50994 13.2273 2.27649 13.3231 2.10438 13.4935C1.93226 13.664 1.83556 13.8953 1.83556 14.1364V17.7727C1.83556 18.0138 1.93226 18.2451 2.10438 18.4156C2.27649 18.586 2.50994 18.6818 2.75335 18.6818H17.2467C17.4901 18.6818 17.7235 18.586 17.8956 18.4156C18.0677 18.2451 18.1644 18.0138 18.1644 17.7727V14.1364C18.1644 13.8953 18.0677 13.664 17.8956 13.4935C17.7235 13.3231 17.4901 13.2273 17.2467 13.2273H2.75335ZM6.43082 5.08138C6.43082 5.54162 5.97882 5.91471 5.42126 5.91471C4.86369 5.91471 4.4117 5.54162 4.4117 5.08138C4.4117 4.62114 4.86369 4.24805 5.42126 4.24805C5.97882 4.24805 6.43082 4.62114 6.43082 5.08138ZM8.72974 5.91471C9.2873 5.91471 9.7393 5.54162 9.7393 5.08138C9.7393 4.62114 9.2873 4.24805 8.72974 4.24805C8.17217 4.24805 7.72018 4.62114 7.72018 5.08138C7.72018 5.54162 8.17217 5.91471 8.72974 5.91471ZM6.43082 15.939C6.43082 16.3993 5.97882 16.7724 5.42126 16.7724C4.86369 16.7724 4.4117 16.3993 4.4117 15.939C4.4117 15.4788 4.86369 15.1057 5.42126 15.1057C5.97882 15.1057 6.43082 15.4788 6.43082 15.939ZM8.72974 16.7724C9.2873 16.7724 9.7393 16.3993 9.7393 15.939C9.7393 15.4788 9.2873 15.1057 8.72974 15.1057C8.17217 15.1057 7.72018 15.4788 7.72018 15.939C7.72018 16.3993 8.17217 16.7724 8.72974 16.7724Z" fill="#7E8486"/>
</svg>
